<svg xmlns="http://www.w3.org/2000/svg" width="161.166" height="22.871" viewBox="0 0 161.166 22.871">
  <g id="logo_blue" transform="translate(-0.001 0.001)">
    <g id="그룹_3" data-name="그룹 3" transform="translate(134.167 1.372)">
      <path id="패스_30" data-name="패스 30" d="M233.338,378.333l-3.387,11.207s-.555,2.616,1.767,2.963h15.208l1.365-3.528H234.227l.552-1.853h13.676l1.59-3.208H235.527l.725-2.263h13.817l1.973-3.318Z" transform="translate(-225.042 -378.333)" fill="#005eac"/>
      <path id="패스_31" data-name="패스 31" d="M222.5,409.772l20.961-.021a3.86,3.86,0,0,0,2.315-.463l-2.321,3.249a2.943,2.943,0,0,1-2.09.988H220.82Z" transform="translate(-220.82 -392.735)" fill="#005eac"/>
    </g>
    <path id="패스_32" data-name="패스 32" d="M-2.354,381.172l2.3-3.744h-21.8l-1.751,3.8h3.892l-1.9,5.962H-24.58l-1.974,3.542h9.23l-1.508,4.527h-9.1l-2.149,3.426H-8.9a2.989,2.989,0,0,0,2.437-.928,21.837,21.837,0,0,0,2.019-3.238,9.208,9.208,0,0,1-2.822.74h-7.2l1.509-4.585h7.723l1.973-3.537H-6.8l1.834-5.965Zm-8.572,5.965H-17.4l1.958-5.908h6.355Z" transform="translate(30.082 -376.54)" fill="#005eac"/>
    <g id="그룹_4" data-name="그룹 4" transform="translate(27.53)">
      <path id="패스_33" data-name="패스 33" d="M27.721,377.477l-2.149,3.681h8.933l-2.188,3.791H26.891l-2.065,3.4h5.34s-3.772,5.286-8.766,6.968l.815,2.845s12.049-1.584,18.433-20.682Z" transform="translate(-21.401 -376.563)" fill="#005eac"/>
      <path id="패스_34" data-name="패스 34" d="M63.5,383.807H59.843l2.348-8.04H57.8L51.112,398.58H55.53l3.246-11.119h2.751Z" transform="translate(-35.225 -375.768)" fill="#005eac"/>
    </g>
    <g id="그룹_5" data-name="그룹 5" transform="translate(55.063 0.112)">
      <path id="패스_35" data-name="패스 35" d="M79.332,378.182,76.7,381.737h9.754l-1.144,4.2H75.878l-2.9,10.278a2.228,2.228,0,0,0,1.383,2.759H84.745a5.019,5.019,0,0,0,2.22-.961,37.113,37.113,0,0,0,2.423-3.248,4.973,4.973,0,0,1-2.257.521h-9.4l1.629-5.6h9.5l2.983-11.52Z" transform="translate(-72.891 -376.995)" fill="#005eac"/>
      <path id="패스_36" data-name="패스 36" d="M110.1,375.977,103.367,398.7h4.592l6.6-22.723Z" transform="translate(-87.07 -375.977)" fill="#005eac"/>
    </g>
    <g id="그룹_6" data-name="그룹 6" transform="translate(83.071 1.496)">
      <path id="패스_37" data-name="패스 37" d="M143.375,378.566s-5.266,9.23-13.168,12.014l1.968,2.322a28.935,28.935,0,0,0,12.189-8.88s1.915,6.382,6.213,9.115c0,0,3.018-2.615,3.424-2.788s-5.812-3.645-5.636-11.773Z" transform="translate(-127.565 -378.566)" fill="#005eac"/>
      <path id="패스_38" data-name="패스 38" d="M127.294,409.825l-2.027,3.538h20.87a3.017,3.017,0,0,0,2.313-.7l2.427-3.727a4.781,4.781,0,0,1-2.417.886Z" transform="translate(-125.267 -392.697)" fill="#005eac"/>
    </g>
    <g id="그룹_7" data-name="그룹 7" transform="translate(110.335 0.045)">
      <path id="패스_39" data-name="패스 39" d="M191.049,376.208c-3.38-.355-7.266,2.181-8.68,5.669s.178,6.6,3.558,6.953,7.265-2.179,8.681-5.666S194.428,376.562,191.049,376.208Zm-.1,6.361a3.9,3.9,0,0,1-3.435,2.776c-1.448,0-2.257-1.253-1.809-2.792a3.889,3.889,0,0,1,3.436-2.778c1.443,0,2.254,1.256,1.8,2.794Z" transform="translate(-178.858 -376.003)" fill="#005eac"/>
      <path id="패스_40" data-name="패스 40" d="M178.147,400.949l-1.893,3.7h5.169a10.473,10.473,0,0,1-3.031,5.517h4.433a11.09,11.09,0,0,0,2.5-5.458h3.631l1.974-3.762Z" transform="translate(-176.253 -387.529)" fill="#005eac"/>
      <path id="패스_41" data-name="패스 41" d="M213.85,398.671l7.029-22.818-3.7.007-7.028,22.818Z" transform="translate(-192.027 -375.853)" fill="#005eac"/>
      <path id="패스_42" data-name="패스 42" d="M207.948,377.477l-2.791,8.276H203.02l-1.987,2.987h3.393l-3.139,9.968,3.675.016,6.684-21.235Z" transform="translate(-187.782 -376.608)" fill="#005eac"/>
    </g>
  </g>
</svg>
